<svg width="24" height="24" fill="none" xmlns="http://www.w3.org/2000/svg"><path d="M1 12c0-2.966 1.286-5.843 3.222-7.778C6.157 2.286 9.034 1 12 1c2.966 0 5.842 1.286 7.778 3.222C21.714 6.157 23 9.034 23 12c0 2.966-1.286 5.842-3.222 7.778S14.966 23 12 23c-2.966 0-5.843-1.286-7.778-3.222C2.286 17.842 1 14.966 1 12zm4.636 6.364C7.32 20.048 9.443 21 12 21s4.68-.952 6.364-2.636C20.048 16.68 21 14.557 21 12s-.952-4.68-2.636-6.364C16.68 3.952 14.557 3 12 3s-4.68.952-6.364 2.636C3.952 7.32 3 9.443 3 12s.952 4.68 2.636 6.364z" fill="#bb3636"/></svg>