<svg width="24" height="24" viewBox="0 0 24 24" fill="none" xmlns="http://www.w3.org/2000/svg">
  <path d="M 1 12 C 1 9.034 2.286 6.157 4.222 4.222 C 6.157 2.286 9.034 1 12 1 C 14.966 1 17.842 2.286 19.778 4.222 C 21.714 6.157 23 9.034 23 12 C 23 14.966 21.714 17.842 19.778 19.778 C 17.842 21.714 14.966 23 12 23 C 9.034 23 6.157 21.714 4.222 19.778 C 2.286 17.842 1 14.966 1 12 Z M 5.636 18.364 C 7.32 20.048 9.443 21 12 21 C 14.557 21 16.68 20.048 18.364 18.364 C 20.048 16.68 21 14.557 21 12 C 21 9.443 20.048 7.32 18.364 5.636 C 16.68 3.952 14.557 3 12 3 C 9.443 3 7.32 3.952 5.636 5.636 C 3.952 7.32 3 9.443 3 12 C 3 14.557 3.952 16.68 5.636 18.364 Z" style="fill: rgb(187, 54, 54);" />
</svg>
